<svg xmlns="http://www.w3.org/2000/svg" version="1.1" xmlns:xlink="http://www.w3.org/1999/xlink" width="512" height="512"><svg width="512" height="512" viewBox="0 0 512 512" fill="none" xmlns="http://www.w3.org/2000/svg">
<g id="SvgjsG1003">
<path id="SvgjsPath1002" fill-rule="evenodd" clip-rule="evenodd" d="M225.45 118.155C202.436 133.015 194.647 143.276 191.461 165.212C184.026 215.808 249.171 247.298 276.433 205.901C286.701 190.333 275.725 164.151 259.439 164.151C247.755 164.151 243.152 174.765 250.942 183.964C256.252 190.333 255.544 192.81 248.463 195.287C226.866 203.778 212.704 162.735 231.823 146.814C260.501 123.108 306.528 150.706 306.528 191.748C306.528 235.975 266.52 260.389 214.12 248.005C161.366 235.268 114.277 257.204 99.761 301.431C77.4557 369.01 159.596 426.682 208.455 377.856C237.488 348.843 219.431 298.247 180.131 298.247C162.428 298.247 146.142 322.66 155.701 334.336C164.907 345.305 172.342 344.951 172.342 333.983C172.342 321.953 191.461 326.199 193.939 338.936C196.772 354.15 184.38 365.118 164.199 365.118C114.631 365.118 114.631 292.232 164.199 275.957C202.436 263.219 238.904 286.217 250.588 330.444C267.936 396.608 341.579 424.913 390.084 383.871C437.882 343.889 415.576 270.296 355.741 270.296C315.379 270.296 292.012 311.338 317.858 337.167C330.958 350.258 347.244 351.673 356.803 340.351C364.593 330.444 358.928 318.415 347.952 322.66C338.393 326.199 333.436 318.768 338.039 307.093C346.182 285.156 384.774 303.554 384.774 329.737C384.774 381.394 309.714 390.239 286.347 341.059C272.893 312.754 279.62 286.571 309.36 253.312C339.455 219.7 345.12 195.994 332.02 161.32C315.025 116.739 261.917 95.5104 225.45 118.155Z" fill="#FE6700" stroke="#3EB8E7"></path>
</g>
</svg><style>@media (prefers-color-scheme: light) { :root { filter: none; } }
@media (prefers-color-scheme: dark) { :root { filter: none; } }
</style></svg>